# xmcd
#
# Track frame offsets:
# 150
# 11411
# 26149
# 43830
# 82393
# 95329
# 107964
# 119444
# 134142
# 147147
# 162775
# 172703
# 187399
# 196146
#
# Disc length: 2761 seconds
#
#
# Revision: 0
# Processed by: cddbd v1.5.1PL2 Copyright (c) Steve Scherf et al.
# Submitted via: FreeRIP 2.945 
#
DISCID=c80ac70e
DTITLE=Blues - History of Rock
DYEAR=1900
DGENRE=Blues
TTITLE0=Mojo Hand - Lightnin' Hopkins
TTITLE1=Sally Mae - John Lee Hooker
TTITLE2=Monday Morning Blues - Mississippi John Hurt
TTITLE3=Why I Sing The Blues - B.B. King
TTITLE4=I Ain't Superstitious - Howlin' Wolf
TTITLE5=Long Tall Mama - Big Bill Broonzy
TTITLE6=I'd Rather Go Blind - Etta James
TTITLE7=Staggerlee - Taj Mahal
TTITLE8=Dust My Broom - Elmore James
TTITLE9=Iodine In My Coffee - Muddy Waters
TTITLE10=Messin' With The Kid - Junior Wells and Buddy Guy
TTITLE11=How Long, How Long Blues - Big Joe Turner
TTITLE12=Baby Please Don't Go - Big Joe Williams
TTITLE13=Hush Hush - Jimmy Reed
EXTD=
EXTT0=
EXTT1=
EXTT2=
EXTT3=
EXTT4=
EXTT5=
EXTT6=
EXTT7=
EXTT8=
EXTT9=
EXTT10=
EXTT11=
EXTT12=
EXTT13=
PLAYORDER=
